<svg xmlns="http://www.w3.org/2000/svg" viewBox="0 0 478.09 476.7"><defs><style>.cls-1{fill:#ce1069;}.cls-2{fill:#7e2248;}.cls-3{fill:#ef7a99;}.cls-4{fill:#e5b1c2;}</style></defs><g id="Layer_2" data-name="Layer 2"><g id="Layer_1-2" data-name="Layer 1"><path class="cls-1" d="M384.6,175.75a52.9,52.9,0,1,1-52.9-52.9A52.89,52.89,0,0,1,384.6,175.75Z"/><path class="cls-2" d="M294.07,164.94a55.6,55.6,0,0,1,13.32-36.17,52.9,52.9,0,1,0,53.9,90.84,55.89,55.89,0,0,1-67.22-54.67Z"/><path class="cls-3" d="M265.21,402.67A103.5,103.5,0,0,0,271.32,385c-134.2.92-235.43-147.62-165.93-274.45C164.34,3,305.69,5.27,368.5,38.66A237.2,237.2,0,0,0,238.35,0C106.71,0,0,106.71,0,238.35A238.21,238.21,0,0,0,115.55,442.67a223.31,223.31,0,0,0,44.5,20.54S236.35,466.86,265.21,402.67Z"/><path class="cls-4" d="M384.32,48.85c57,77.84,35.87,152.43-11.94,182.74s-115.08,8-140.81-12.82c112.44,156.89,26.79,244.86-45,252a239,239,0,0,0,53.12,5.94c131.64,0,238.36-106.71,238.36-238.35A238,238,0,0,0,384.32,48.85Z"/><path class="cls-2" d="M323.12,392c15.14-75.53-75.12-156.75-91.55-173.25,112.44,156.89,26.79,244.86-45,252C264.18,476.7,315.38,430.67,323.12,392Z"/><path class="cls-2" d="M92,116.52c-94.64,139.18-27,285.33,68,346.66a223.89,223.89,0,0,1-44.4-20.51A238.21,238.21,0,0,1,0,238.35C0,106.71,106.71,0,238.35,0A237.22,237.22,0,0,1,376.89,44.38C323.1,7.22,173.72-3.68,92,116.52Z"/></g></g></svg>