<svg xmlns="http://www.w3.org/2000/svg" viewBox="0 0 662.97 463.48"><defs><style>.cls-1{fill:#fff;opacity:0;}.cls-2{font-size:29px;font-family:MyriadPro-Regular, Myriad Pro;letter-spacing:0.07em;}.cls-10,.cls-2{fill:#ce0f69;}.cls-3{letter-spacing:0.07em;}.cls-4{letter-spacing:0.07em;}.cls-5{letter-spacing:0.07em;}.cls-6{letter-spacing:0.07em;}.cls-7{letter-spacing:0.07em;}.cls-8{letter-spacing:0.08em;}.cls-9{letter-spacing:0.09em;}.cls-11{fill:#7d2248;}.cls-12{fill:#9b26b6;}.cls-13{fill:#84bd00;}.cls-14{fill:#67823a;}.cls-15{fill:#582c83;}</style></defs><g id="Layer_2" data-name="Layer 2"><g id="Layer_1-2" data-name="Layer 1"><rect class="cls-1" width="662.97" height="463.48"/><text class="cls-2" transform="translate(36.14 429.89)">manageme<tspan class="cls-3" x="155.09" y="0">n</tspan><tspan class="cls-4" x="173.24" y="0">t</tspan><tspan class="cls-5" x="184.93" y="0">, t</tspan><tspan class="cls-6" x="213.21" y="0">r</tspan><tspan x="224.72" y="0">aining &amp; </tspan><tspan class="cls-7" x="350.08" y="0">c</tspan><tspan class="cls-8" x="365.08" y="0">onsultan</tspan><tspan class="cls-9" x="488.47" y="0">c</tspan><tspan class="cls-5" x="504.16" y="0">y</tspan></text><path class="cls-10" d="M403.92,105.31a26.45,26.45,0,1,1-26.45-26.45A26.45,26.45,0,0,1,403.92,105.31Z"/><path class="cls-11" d="M358.65,99.91a27.78,27.78,0,0,1,6.66-18.08,26.45,26.45,0,1,0,26.95,45.41,27.95,27.95,0,0,1-33.61-27.33Z"/><path class="cls-12" d="M344.91,218.77A51.11,51.11,0,0,0,348,210c-67.1.46-117.72-73.81-83-137.23C294.48,19,365.15,20.07,396.56,36.77a119.19,119.19,0,1,0-126.48,202A111.84,111.84,0,0,0,292.33,249S330.48,250.87,344.91,218.77Z"/><path class="cls-13" d="M403.78,41.86c28.47,38.92,17.93,76.22-6,91.37s-57.55,4-70.41-6.4c56.22,78.44,13.4,122.42-22.48,126a119.2,119.2,0,0,0,98.86-211Z"/><path class="cls-14" d="M373.18,213.45c7.57-37.77-37.56-78.38-45.78-86.62,56.22,78.44,13.4,122.42-22.48,126C343.71,255.79,369.3,232.78,373.18,213.45Z"/><path class="cls-15" d="M258.3,75.7C211,145.29,244.78,218.37,292.28,249a112.11,112.11,0,0,1-22.2-10.25A119.19,119.19,0,1,1,400.75,39.63C373.86,21.05,299.17,15.6,258.3,75.7Z"/><path class="cls-13" d="M645.25,323.27c-11.42,29.36-31.8,76.86-42.08,100.9H586.38s10-21.14,12.88-28.14c-7.33-18.66-22-59.27-26.4-72.76h18.42c4.29,15.36,11.82,39.73,16.76,53.8,5.17-13.34,16.71-45.34,18.77-53.8Z"/><path class="cls-15" d="M70.8,313.14q-14.44,0-22.07,9T41.1,347a49.74,49.74,0,0,0,1.82,13.84,30.7,30.7,0,0,0,5.4,10.73,24.7,24.7,0,0,0,8.91,6.95,29.12,29.12,0,0,0,12.49,2.5,74.18,74.18,0,0,0,7.7-.34,30.7,30.7,0,0,0,5.13-.88V346.22h17v44.95a77.89,77.89,0,0,1-11.88,3,102.49,102.49,0,0,1-19.31,1.62,50.81,50.81,0,0,1-18.49-3.24,38.35,38.35,0,0,1-14.25-9.45,43,43,0,0,1-9.11-15.25A61.49,61.49,0,0,1,23.28,347a56.12,56.12,0,0,1,3.58-20.79,44.88,44.88,0,0,1,9.79-15.32,41.1,41.1,0,0,1,14.58-9.52,48.93,48.93,0,0,1,17.82-3.24,67.57,67.57,0,0,1,11.54.88A77.29,77.29,0,0,1,89.3,301a34.91,34.91,0,0,1,6,2.3c1.58.81,2.68,1.39,3.31,1.75L93.48,319a41.44,41.44,0,0,0-10.06-4.12A46.61,46.61,0,0,0,70.8,313.14Z"/><path class="cls-15" d="M181,358.5a45.57,45.57,0,0,1-2.43,15.26,33.73,33.73,0,0,1-6.88,11.74,30.94,30.94,0,0,1-10.74,7.56,34.61,34.61,0,0,1-13.83,2.7,34.18,34.18,0,0,1-13.77-2.7,31.13,31.13,0,0,1-10.67-7.56,34.5,34.5,0,0,1-7-11.74,44.33,44.33,0,0,1-2.5-15.26,43.71,43.71,0,0,1,2.5-15.18,34,34,0,0,1,7-11.68,30.9,30.9,0,0,1,10.73-7.49,34.52,34.52,0,0,1,13.64-2.64,35,35,0,0,1,13.7,2.64,30.17,30.17,0,0,1,10.73,7.49,34.61,34.61,0,0,1,7,11.68A43.71,43.71,0,0,1,181,358.5Zm-16.74,0q0-10.53-4.52-16.67a16,16,0,0,0-25.25,0q-4.51,6.15-4.52,16.67t4.52,16.88a15.94,15.94,0,0,0,25.25,0Q164.22,369.17,164.22,358.5Z"/><path class="cls-15" d="M260.34,358.5a45.57,45.57,0,0,1-2.43,15.26A33.73,33.73,0,0,1,251,385.5a30.94,30.94,0,0,1-10.74,7.56,34.61,34.61,0,0,1-13.83,2.7,34.11,34.11,0,0,1-13.77-2.7A31,31,0,0,1,202,385.5a34.5,34.5,0,0,1-7-11.74,44.33,44.33,0,0,1-2.5-15.26,43.71,43.71,0,0,1,2.5-15.18,34,34,0,0,1,7-11.68,30.9,30.9,0,0,1,10.73-7.49,34.49,34.49,0,0,1,13.64-2.64,35,35,0,0,1,13.7,2.64,30.17,30.17,0,0,1,10.73,7.49,34.61,34.61,0,0,1,6.95,11.68A43.71,43.71,0,0,1,260.34,358.5Zm-16.74,0q0-10.53-4.52-16.67a16,16,0,0,0-25.25,0q-4.52,6.15-4.52,16.67t4.52,16.88a15.94,15.94,0,0,0,25.25,0Q243.6,369.17,243.6,358.5Z"/><path class="cls-15" d="M335.54,391.71a97.41,97.41,0,0,1-12.22,2.7,94.87,94.87,0,0,1-15.46,1.22,41.22,41.22,0,0,1-15-2.57,31.31,31.31,0,0,1-11.27-7.35,32.48,32.48,0,0,1-7.15-11.61,44.25,44.25,0,0,1-2.5-15.33A51.73,51.73,0,0,1,274,343.59a33.27,33.27,0,0,1,6.14-11.68,27.34,27.34,0,0,1,9.86-7.49,32,32,0,0,1,13.36-2.64,30.59,30.59,0,0,1,9.05,1.22,40.47,40.47,0,0,1,6.75,2.7V291.81l16.34-2.7Zm-46.85-33.34q0,10.8,5.13,16.94T308,381.45a57.79,57.79,0,0,0,6.69-.33c1.84-.23,3.35-.48,4.52-.75v-40.5a25,25,0,0,0-5.74-2.76,22.31,22.31,0,0,0-7.63-1.29q-8.91,0-13,6.08T288.69,358.37Z"/><path class="cls-13" d="M384,395q-7.42,0-15-.47a69.42,69.42,0,0,1-13.23-2V301.67q3-.54,6.35-1t6.88-.75q3.51-.27,7-.4t6.54-.14a90.81,90.81,0,0,1,15.8,1.29,40,40,0,0,1,12.62,4.25,22.06,22.06,0,0,1,8.3,7.83,22.63,22.63,0,0,1,3,12A19.83,19.83,0,0,1,419,336.09a22.36,22.36,0,0,1-8.84,7.56q8.51,2.84,12.55,8.37t4.05,14q0,14.44-10.53,21.67T384,395Zm-11.48-56.56h12q9.72,0,15.25-2.77t5.54-9.92q0-6.75-5.74-9.59t-14.92-2.83c-2.61,0-4.92.05-6.95.13s-3.76.23-5.2.41Zm0,13.36v28.49c1.89.18,3.92.32,6.08.4s4.14.14,5.94.14a65.15,65.15,0,0,0,9.79-.68,25.37,25.37,0,0,0,7.83-2.36,13.91,13.91,0,0,0,5.26-4.52,12.52,12.52,0,0,0,2-7.29q0-8-5.81-11.07t-16.06-3.11Z"/><path class="cls-13" d="M500.91,391.71q-4.73,1.21-12.29,2.5a99,99,0,0,1-16.6,1.28,36.58,36.58,0,0,1-14.24-2.43,22.79,22.79,0,0,1-9.18-6.75A26.48,26.48,0,0,1,443.67,376a54.9,54.9,0,0,1-1.49-13.17V323.27h16.34v37q0,11.34,3.31,16.2t11.54,4.86q3,0,6.28-.27a33,33,0,0,0,4.92-.68v-57.1h16.34Z"/><path class="cls-13" d="M538.71,382.13q6.48,0,9.45-1.55a5.53,5.53,0,0,0,3-5.34,6.9,6.9,0,0,0-3.18-5.8q-3.16-2.29-10.46-5a82,82,0,0,1-8.17-3.44,27.8,27.8,0,0,1-6.41-4.25,17.41,17.41,0,0,1-4.25-5.87,20.43,20.43,0,0,1-1.55-8.44q0-9.72,7.15-15.32t19.44-5.61a60.15,60.15,0,0,1,11.88,1.15,58.5,58.5,0,0,1,8.51,2.23l-3,13.23a40.52,40.52,0,0,0-6.89-2.23,41.89,41.89,0,0,0-9.72-1,16.86,16.86,0,0,0-8.1,1.69,5.52,5.52,0,0,0-3.1,5.19,7.6,7.6,0,0,0,.6,3.11,6.81,6.81,0,0,0,2.1,2.5,21.38,21.38,0,0,0,3.91,2.29,59.21,59.21,0,0,0,5.94,2.36,89.55,89.55,0,0,1,9.86,4.26A26.75,26.75,0,0,1,562.4,361a16.28,16.28,0,0,1,3.85,6,24,24,0,0,1,1.21,8.1q0,10.13-7.49,15.32t-21.4,5.2a58.77,58.77,0,0,1-15-1.55,79,79,0,0,1-8-2.5l2.84-13.64a73.7,73.7,0,0,0,8.7,2.84A45,45,0,0,0,538.71,382.13Z"/></g></g></svg>