<?xml version="1.0" encoding="utf-8"?>
<!-- Generator: Adobe Illustrator 25.3.1, SVG Export Plug-In . SVG Version: 6.00 Build 0)  -->
<svg version="1.1" id="Layer_1" xmlns="http://www.w3.org/2000/svg" xmlns:xlink="http://www.w3.org/1999/xlink" x="0px" y="0px"
	 viewBox="0 0 533.16 142.67" style="enable-background:new 0 0 533.16 142.67;" xml:space="preserve">
<style type="text/css">
	.st0{fill:#1379A7;}
	.st1{fill:#EE8D24;}
	.st2{fill:#CD1B71;}
	.st3{fill:#761F4B;}
	.st4{fill:#00A0DF;}
	.st5{fill:#F18A00;}
	.st6{fill:#BC4700;}
	.st7{fill:#0075A9;}
</style>
<g>
	<g>
		<g>
			<path class="st0" d="M36.09,107.33l-17.1-0.25c-0.42-2.6-1.07-6.1-1.95-10.5c-0.88-4.4-1.84-9.41-2.89-15.03
				c-1.05-5.62-2.16-11.4-3.33-17.35c-0.84-4.53-1.68-9.01-2.52-13.46c-0.84-4.44-1.64-8.7-2.39-12.76
				c-0.75-4.07-1.47-7.82-2.14-11.26c-0.67-3.44-1.26-6.41-1.76-8.93l15.85,0.13c0.59,3.94,1.19,8.26,1.82,12.95
				c0.63,4.7,1.28,9.5,1.95,14.4c0.67,4.9,1.34,9.75,2.01,14.53c0.42,2.85,0.82,5.64,1.19,8.36c0.38,2.73,0.77,5.33,1.19,7.8
				c0.42,2.47,0.8,4.82,1.13,7.04c0.33,2.22,0.67,4.3,1.01,6.23c0.5-2.01,0.98-4.15,1.45-6.41c0.46-2.26,0.94-4.63,1.45-7.11
				c0.5-2.47,1.01-5.01,1.51-7.61c0.5-2.6,1.01-5.2,1.51-7.8c0.92-4.69,1.8-9.26,2.64-13.71c0.84-4.44,1.61-8.61,2.33-12.51
				c0.71-3.9,1.32-7.19,1.82-9.87l15.22-0.13c0.59,3.77,1.21,7.73,1.89,11.88c0.67,4.15,1.4,8.38,2.2,12.7
				c0.8,4.32,1.61,8.66,2.45,13.02c0.42,2.35,0.84,4.7,1.26,7.04c0.42,2.35,0.86,4.67,1.32,6.98c0.46,2.31,0.92,4.57,1.38,6.79
				c0.46,2.22,0.94,4.38,1.45,6.48c0.33-2.26,0.77-4.95,1.32-8.05c0.54-3.1,1.11-6.54,1.7-10.31c0.59-3.77,1.17-7.67,1.76-11.7
				c0.75-4.95,1.51-9.91,2.26-14.9c0.75-4.99,1.47-9.72,2.14-14.21c0.67-4.48,1.26-8.36,1.76-11.63l14.96-0.63
				c-0.42,2.18-0.94,4.82-1.57,7.92c-0.63,3.1-1.3,6.48-2.01,10.12c-0.71,3.65-1.47,7.5-2.26,11.57c-0.8,4.07-1.62,8.28-2.45,12.64
				c-0.92,5.45-1.91,10.96-2.96,16.54c-1.05,5.58-2.07,10.98-3.08,16.22c-1.01,5.24-1.93,10.17-2.77,14.78l-17.35-0.38
				c-0.42-2.09-0.92-4.76-1.51-7.99c-0.59-3.23-1.24-6.73-1.95-10.5c-0.71-3.77-1.43-7.65-2.14-11.63
				c-0.71-3.98-1.45-7.77-2.2-11.38c-0.5-2.68-0.99-5.13-1.45-7.36c-0.46-2.22-0.88-4.25-1.26-6.1c-0.38-1.84-0.69-3.31-0.94-4.4
				c-0.17,1.34-0.44,2.87-0.82,4.59c-0.38,1.72-0.78,3.58-1.19,5.6c-0.42,2.01-0.84,4.15-1.26,6.41c-0.67,3.52-1.38,7.23-2.14,11.13
				c-0.75,3.9-1.53,7.78-2.33,11.63c-0.8,3.86-1.55,7.54-2.26,11.07C37.33,101.55,36.68,104.65,36.09,107.33z"/>
			<path class="st0" d="M121.61,107.96c-4.7,0-8.47-1.09-11.32-3.27c-2.85-2.18-5.03-5.07-6.54-8.68c-1.26-3.02-2.16-6.43-2.7-10.25
				c-0.55-3.81-0.82-7.86-0.82-12.13c0-3.77,0.25-7.36,0.75-10.75c0.5-3.4,1.26-6.43,2.26-9.12c1.59-4.02,3.92-7.23,6.98-9.62
				c3.06-2.39,7.15-3.58,12.26-3.58c4.69,0,8.4,0.96,11.13,2.89c2.72,1.93,4.65,4.63,5.78,8.11c1.13,3.48,1.7,7.53,1.7,12.14
				c0,2.1-0.11,4.32-0.31,6.67c-0.21,2.35-0.48,4.74-0.82,7.17l-12.7-8.68c0.17-1.42,0.29-2.79,0.38-4.09
				c0.08-1.3,0.13-2.53,0.13-3.71c0-2.09-0.17-3.92-0.5-5.47c-0.34-1.55-0.94-2.79-1.82-3.71c-0.88-0.92-2.16-1.38-3.84-1.38
				c-1.76,0-3.17,0.63-4.21,1.89c-1.05,1.26-1.82,2.94-2.33,5.03c-0.5,1.93-0.82,4.21-0.94,6.85c-0.13,2.64-0.19,5.39-0.19,8.24
				c0,2.1,0,4.13,0,6.1c0,1.97,0.06,3.82,0.19,5.53c0.13,1.72,0.27,3.29,0.44,4.72c0.5,2.68,1.32,4.8,2.45,6.35
				c1.13,1.55,2.79,2.33,4.97,2.33c1.59,0,2.85-0.33,3.77-1.01c0.92-0.67,1.59-1.57,2.01-2.7c0.42-1.13,0.63-2.41,0.63-3.83
				c0-0.67-0.04-1.4-0.13-2.2c-0.08-0.8-0.25-1.57-0.5-2.33h13.08c0.17,0.84,0.27,1.66,0.31,2.45c0.04,0.8,0.06,1.57,0.06,2.33
				c0,3.69-0.75,6.85-2.26,9.5c-1.51,2.64-3.73,4.67-6.67,6.1C129.36,107.25,125.8,107.96,121.61,107.96z M104.38,78.54l-0.25-10.56
				l33.58-0.25l2.26,9.81c-3.27,0-6.21,0.04-8.8,0.12c-2.6,0.08-5.47,0.15-8.61,0.19c-3.14,0.04-6.31,0.12-9.49,0.25
				C109.87,78.22,106.98,78.37,104.38,78.54z"/>
			<path class="st0" d="M176.31,107.33c-2.52,0-4.61-0.55-6.29-1.63c-1.68-1.09-3.06-2.56-4.15-4.4l-0.25,5.91l-12.32-0.75
				c0-1.59,0.02-3.62,0.06-6.1c0.04-2.47,0.06-5.26,0.06-8.36c0-3.1,0-6.33,0-9.68c0-3.35-0.02-6.67-0.06-9.93
				c-0.04-3.27-0.06-6.33-0.06-9.18c0-3.44-0.02-6.94-0.06-10.5c-0.04-3.56-0.11-7.21-0.19-10.94c-0.08-3.73-0.19-7.44-0.31-11.13
				c-0.13-3.69-0.27-7.33-0.44-10.94l14.71-2.26l-0.38,31.06c1.34-2.52,3.06-4.48,5.16-5.91c2.09-1.42,4.61-2.14,7.55-2.14
				c3.27,0,5.93,0.84,7.99,2.52c2.05,1.68,3.67,3.96,4.84,6.85c1.17,2.89,1.89,6.23,2.14,10c0.25,2.85,0.42,5.78,0.5,8.8
				c0.08,3.02,0.06,5.99-0.06,8.93c-0.13,2.94-0.36,5.72-0.69,8.36c-0.34,2.64-0.8,5.05-1.38,7.23c-1.18,4.36-3.04,7.82-5.6,10.38
				C184.51,106.06,180.92,107.33,176.31,107.33z M173.92,97.15c1.42,0,2.58-0.31,3.46-0.94s1.59-1.57,2.14-2.83
				c0.54-1.26,0.94-2.64,1.19-4.15c0.25-1.34,0.42-3,0.5-4.97c0.08-1.97,0.15-4.13,0.19-6.48c0.04-2.35,0.04-4.74,0-7.17
				c-0.04-2.43-0.11-4.65-0.19-6.67c0-2.77-0.23-5.09-0.69-6.98c-0.46-1.89-1.09-3.31-1.89-4.28c-0.8-0.96-1.91-1.45-3.33-1.45
				c-1.43,0-2.81,0.61-4.15,1.82c-1.34,1.22-2.45,3.14-3.33,5.78s-1.32,6.14-1.32,10.5v8.17c0,4.61,0.31,8.34,0.94,11.19
				c0.63,2.85,1.51,4.97,2.64,6.35S172.5,97.15,173.92,97.15z"/>
			<path class="st1" d="M220.2,107.71c-3.35,0-5.97-0.74-7.86-2.2s-3.25-3.65-4.09-6.54c-0.84-2.89-1.26-6.39-1.26-10.5
				c0-1.42,0-3.29,0-5.6c0-2.31,0-4.88,0-7.73c0-2.85-0.02-5.83-0.06-8.93c-0.04-3.1-0.08-6.16-0.13-9.18
				c-0.04-3.02-0.06-5.89-0.06-8.61c0-2.72,0-5.13,0-7.23l13.46-1.63c-0.08,2.77-0.17,5.87-0.25,9.31
				c-0.08,3.44-0.19,6.98-0.31,10.63s-0.23,7.19-0.31,10.63c-0.08,3.44-0.15,6.6-0.19,9.49c-0.04,2.89-0.06,5.34-0.06,7.36
				c0,2.18,0.13,4.07,0.38,5.66c0.25,1.59,0.71,2.81,1.38,3.65c0.67,0.84,1.59,1.26,2.77,1.26c1.84,0,3.56-1.03,5.16-3.08
				c1.59-2.05,2.85-5.18,3.77-9.37c0.92-4.19,1.38-9.56,1.38-16.1c0-2.01,0-4.04,0-6.1c0-2.05-0.02-4.15-0.06-6.29
				c-0.04-2.14-0.08-4.32-0.13-6.54c-0.04-2.22-0.06-4.55-0.06-6.98l13.96,0.25c-0.17,4.7-0.31,8.85-0.44,12.45
				c-0.13,3.61-0.23,7.11-0.31,10.5c-0.08,3.4-0.15,7.06-0.19,11c-0.04,3.94-0.06,8.59-0.06,13.96c0,2.1,0.1,3.94,0.31,5.53
				c0.21,1.59,0.54,2.98,1.01,4.15c0.46,1.17,1.03,2.35,1.7,3.52l-10.94,3.27c-0.92-1.09-1.7-2.49-2.33-4.21
				c-0.63-1.72-1.11-3.88-1.45-6.48c-1.51,3.27-3.48,5.87-5.91,7.8C226.57,106.75,223.64,107.71,220.2,107.71z"/>
			<path class="st1" d="M260.06,106.33c0.08-2.35,0.19-4.78,0.31-7.29c0.13-2.51,0.21-5.28,0.25-8.3c0.04-3.02,0.08-6.35,0.13-10
				c0.04-3.65,0.06-7.73,0.06-12.26c0-3.94-0.02-8.17-0.06-12.7c-0.04-4.53-0.08-9.05-0.13-13.58c-0.04-4.53-0.08-8.78-0.13-12.76
				c-0.04-3.98-0.11-7.4-0.19-10.25h14.08c-0.08,3.77-0.17,7.73-0.25,11.88c-0.08,4.15-0.17,8.38-0.25,12.7
				c-0.08,4.32-0.15,8.55-0.19,12.7c-0.04,4.15-0.06,8.15-0.06,12.01c0,4.44,0.04,8.97,0.13,13.58c0.08,4.61,0.17,8.93,0.25,12.95
				c0.08,4.02,0.17,7.38,0.25,10.06L260.06,106.33z"/>
			<path class="st1" d="M307.35,107.71c-5.03,0-8.95-1.28-11.76-3.84c-2.81-2.56-4.84-6.01-6.1-10.38
				c-0.84-2.85-1.43-6.01-1.76-9.49c-0.34-3.48-0.5-7.19-0.5-11.13c0-2.68,0.1-5.24,0.31-7.67c0.21-2.43,0.57-4.74,1.07-6.92
				c0.5-2.18,1.13-4.19,1.89-6.04c1.59-3.69,3.92-6.62,6.98-8.8c3.06-2.18,7.02-3.27,11.88-3.27c4.53,0,8.13,1.11,10.82,3.33
				c2.68,2.22,4.69,5.22,6.04,8.99c1.01,2.85,1.72,6.04,2.14,9.56c0.42,3.52,0.63,7.25,0.63,11.19c0,3.52-0.12,6.88-0.38,10.06
				c-0.25,3.19-0.75,6.08-1.51,8.68c-0.84,3.27-2.08,6.08-3.71,8.43c-1.63,2.35-3.75,4.15-6.35,5.41
				C314.43,107.08,311.2,107.71,307.35,107.71z M308.23,96.9c2.09,0,3.65-0.8,4.65-2.39c1.01-1.59,1.68-3.73,2.01-6.41
				c0.25-1.26,0.4-2.58,0.44-3.96c0.04-1.38,0.08-2.87,0.13-4.46c0.04-1.59,0.02-3.23-0.06-4.9c0-3.02-0.04-5.85-0.13-8.49
				c-0.08-2.64-0.29-4.97-0.63-6.98c-0.42-2.77-1.11-4.9-2.08-6.41c-0.96-1.51-2.41-2.26-4.34-2.26c-1.09,0-2.03,0.27-2.83,0.82
				c-0.8,0.55-1.47,1.34-2.01,2.39c-0.55,1.05-1.03,2.29-1.45,3.71c-0.34,1.43-0.59,3.04-0.75,4.84c-0.17,1.8-0.27,3.71-0.31,5.72
				c-0.04,2.01-0.06,4.11-0.06,6.29c0,1.59,0.02,3.21,0.06,4.84c0.04,1.63,0.1,3.14,0.19,4.53c0.08,1.38,0.21,2.75,0.38,4.09
				c0.42,2.77,1.15,4.97,2.2,6.6C304.69,96.08,306.22,96.9,308.23,96.9z"/>
			<path class="st1" d="M355.01,107.71c-3.35,0-5.97-0.74-7.86-2.2c-1.89-1.47-3.25-3.65-4.09-6.54c-0.84-2.89-1.26-6.39-1.26-10.5
				c0-1.42,0-3.29,0-5.6c0-2.31,0-4.88,0-7.73c0-2.85-0.02-5.83-0.06-8.93c-0.04-3.1-0.08-6.16-0.12-9.18
				c-0.04-3.02-0.06-5.89-0.06-8.61c0-2.72,0-5.13,0-7.23l13.46-1.63c-0.08,2.77-0.17,5.87-0.25,9.31
				c-0.08,3.44-0.19,6.98-0.31,10.63s-0.23,7.19-0.31,10.63c-0.08,3.44-0.15,6.6-0.19,9.49c-0.04,2.89-0.06,5.34-0.06,7.36
				c0,2.18,0.13,4.07,0.38,5.66c0.25,1.59,0.71,2.81,1.38,3.65c0.67,0.84,1.59,1.26,2.77,1.26c1.84,0,3.56-1.03,5.16-3.08
				c1.59-2.05,2.85-5.18,3.77-9.37c0.92-4.19,1.38-9.56,1.38-16.1c0-2.01,0-4.04,0-6.1c0-2.05-0.02-4.15-0.06-6.29
				c-0.04-2.14-0.08-4.32-0.13-6.54c-0.04-2.22-0.06-4.55-0.06-6.98l13.96,0.25c-0.17,4.7-0.31,8.85-0.44,12.45
				c-0.13,3.61-0.23,7.11-0.31,10.5c-0.08,3.4-0.15,7.06-0.19,11c-0.04,3.94-0.06,8.59-0.06,13.96c0,2.1,0.1,3.94,0.31,5.53
				c0.21,1.59,0.54,2.98,1.01,4.15c0.46,1.17,1.03,2.35,1.7,3.52l-10.94,3.27c-0.92-1.09-1.7-2.49-2.33-4.21
				c-0.63-1.72-1.11-3.88-1.45-6.48c-1.51,3.27-3.48,5.87-5.91,7.8C361.38,106.75,358.45,107.71,355.01,107.71z"/>
			<path class="st1" d="M411.47,107.21c-3.19,0-5.97-0.4-8.36-1.19c-2.39-0.8-4.36-1.93-5.91-3.4c-1.55-1.47-2.73-3.27-3.52-5.41
				c-0.8-2.14-1.2-4.55-1.2-7.23c0-1.01,0.04-2.05,0.13-3.14c0.08-1.09,0.25-2.22,0.5-3.4l13.21-0.13
				c-0.17,1.09-0.31,2.16-0.44,3.21c-0.13,1.05-0.19,1.99-0.19,2.83c0,2.51,0.46,4.4,1.38,5.66c0.92,1.26,2.56,1.89,4.91,1.89
				c1.42,0,2.62-0.31,3.58-0.94c0.96-0.63,1.68-1.51,2.14-2.64c0.46-1.13,0.69-2.41,0.69-3.84c0-2.09-0.55-3.71-1.63-4.84
				c-1.09-1.13-2.58-2.16-4.46-3.08c-1.89-0.92-3.96-1.93-6.22-3.02c-1.76-0.92-3.48-1.93-5.16-3.02c-1.68-1.09-3.14-2.37-4.4-3.84
				c-1.26-1.47-2.26-3.25-3.02-5.34c-0.75-2.09-1.13-4.57-1.13-7.42c0-4.02,0.9-7.42,2.7-10.19c1.8-2.77,4.25-4.84,7.36-6.23
				c3.1-1.38,6.54-2.08,10.31-2.08c4.36,0,7.94,0.75,10.75,2.26c2.81,1.51,4.86,3.58,6.16,6.23c1.3,2.64,1.95,5.68,1.95,9.12
				c0,0.59-0.02,1.19-0.06,1.82c-0.04,0.63-0.08,1.24-0.12,1.82c-0.04,0.59-0.15,1.26-0.31,2.01h-13.46
				c0.17-0.92,0.31-1.82,0.44-2.7c0.13-0.88,0.19-1.7,0.19-2.45c0-2.18-0.46-4.02-1.38-5.53c-0.92-1.51-2.47-2.26-4.65-2.26
				c-1.26,0-2.39,0.27-3.4,0.82c-1.01,0.55-1.76,1.34-2.26,2.39c-0.5,1.05-0.75,2.37-0.75,3.96c0,1.59,0.27,2.96,0.82,4.09
				c0.54,1.13,1.34,2.1,2.39,2.89c1.05,0.8,2.33,1.57,3.84,2.33c2.09,1.09,4.28,2.18,6.54,3.27c2.26,1.09,4.34,2.41,6.23,3.96
				c1.89,1.55,3.44,3.46,4.65,5.72c1.21,2.26,1.82,5.07,1.82,8.43c0,3.94-0.86,7.29-2.58,10.06c-1.72,2.77-4.11,4.88-7.17,6.35
				C419.29,106.47,415.67,107.21,411.47,107.21z"/>
		</g>
	</g>
	<g>
		<g>
			<g>
				<path class="st2" d="M515.4,50.8c0,5.55-4.5,10.05-10.05,10.05c-5.55,0-10.05-4.5-10.05-10.05c0-5.55,4.5-10.05,10.05-10.05
					C510.9,40.75,515.4,45.25,515.4,50.8z"/>
			</g>
		</g>
		<g>
			<path class="st3" d="M498.2,48.75c0-2.62,0.95-5.02,2.53-6.87c-3.23,1.67-5.43,5.04-5.43,8.92c0,5.55,4.5,10.05,10.05,10.05
				c2.08,0,4.02-0.63,5.62-1.72c-0.7,0.14-1.42,0.22-2.16,0.22C502.95,59.35,498.2,54.61,498.2,48.75z"/>
		</g>
		<g>
			<g>
				<g>
					<g>
						<g>
							<path class="st4" d="M492.72,93.91c0.45-1,0.85-2.11,1.16-3.35c-25.49,0.18-44.72-28.04-31.52-52.13
								c11.2-20.43,38.05-20,49.98-13.66c-7.11-4.64-15.6-7.34-24.72-7.34c-25,0-45.28,20.27-45.28,45.28
								c0,16.47,8.8,30.89,21.95,38.81c1.93,1.16,4.97,2.76,8.45,3.9C472.74,105.41,487.24,106.1,492.72,93.91z"/>
						</g>
						<g>
							<path class="st5" d="M515.35,26.7c10.82,14.79,6.81,28.95-2.27,34.71c-9.11,5.77-21.86,1.52-26.75-2.43
								c21.36,29.8,5.09,46.51-8.54,47.86c3.25,0.74,6.62,1.13,10.09,1.13c25,0,45.28-20.27,45.28-45.27
								C533.16,48.02,526.17,34.97,515.35,26.7z"/>
						</g>
						<g>
							<g>
								<path class="st6" d="M503.72,91.88c2.88-14.35-14.27-29.77-17.39-32.91c21.36,29.8,5.09,46.51-8.54,47.86
									C492.52,107.97,502.25,99.23,503.72,91.88z"/>
							</g>
						</g>
						<path class="st7" d="M459.81,39.55c-17.98,26.44-5.14,54.2,12.91,65.85c-3.47-1.14-6.51-2.74-8.43-3.9
							c-13.15-7.92-21.95-22.34-21.95-38.81c0-25,20.27-45.28,45.28-45.28c9.81,0,18.9,3.12,26.32,8.43
							C503.72,18.79,475.34,16.72,459.81,39.55z"/>
					</g>
				</g>
			</g>
		</g>
	</g>
</g>
</svg>
