<svg xmlns="http://www.w3.org/2000/svg" viewBox="0 0 565.86 160.29"><defs><style>.cls-1{fill:#cd1b71;}.cls-2{fill:#761f4b;}.cls-3{fill:#00a0df;}.cls-4{fill:#f18a00;}.cls-5{fill:#bc4700;}.cls-6{fill:#0075a9;}.cls-7{fill:#1379a7;}.cls-8{fill:#ee8d24;}</style></defs><g id="Layer_2" data-name="Layer 2"><g id="Layer_1-2" data-name="Layer 1"><path class="cls-1" d="M542.44,85.8a14.37,14.37,0,1,1-14.37-14.37A14.37,14.37,0,0,1,542.44,85.8Z" transform="translate(-1.97 -17.04)"/><path class="cls-2" d="M517.85,82.86A15,15,0,0,1,521.47,73a14.37,14.37,0,1,0,14.64,24.67A15.82,15.82,0,0,1,533,98,15.16,15.16,0,0,1,517.85,82.86Z" transform="translate(-1.97 -17.04)"/><path class="cls-3" d="M510,147.42a28.23,28.23,0,0,0,1.66-4.79c-36.45.25-63.94-40.09-45.06-74.54,16-29.21,54.39-28.6,71.45-19.53a64.74,64.74,0,1,0-68.7,109.73,61.12,61.12,0,0,0,12.09,5.58S502.17,164.86,510,147.42Z" transform="translate(-1.97 -17.04)"/><path class="cls-4" d="M542.36,51.33c15.47,21.14,9.74,41.4-3.24,49.63s-31.26,2.17-38.25-3.48c30.54,42.61,7.28,66.5-12.21,68.44a64.81,64.81,0,0,0,79.17-63.12A64.63,64.63,0,0,0,542.36,51.33Z" transform="translate(-1.97 -17.04)"/><path class="cls-5" d="M525.74,144.53c4.11-20.51-20.4-42.57-24.87-47,30.54,42.61,7.28,66.5-12.21,68.44C509.73,167.53,523.64,155,525.74,144.53Z" transform="translate(-1.97 -17.04)"/><path class="cls-6" d="M463,69.71c-25.7,37.8-7.34,77.49,18.46,94.15a61.34,61.34,0,0,1-12.06-5.57,64.74,64.74,0,1,1,71-108.18C525.73,40,485.16,37.06,463,69.71Z" transform="translate(-1.97 -17.04)"/><path class="cls-7" d="M35.32,105l-16.74-.24Q18,101,16.67,94.5T13.84,79.8q-1.53-8.25-3.26-17Q9.35,56.18,8.12,49.65T5.78,37.16q-1.11-6-2.09-11C3,22.79,2.46,19.87,2,17.41l15.5.13q.87,5.78,1.79,12.67T21.17,44.3q1,7.2,2,14.21.61,4.18,1.17,8.18t1.17,7.63q.62,3.63,1.11,6.89c.33,2.18.65,4.21,1,6.09.5-2,1-4.06,1.42-6.27l1.41-7q.75-3.63,1.48-7.45T33.35,59q1.35-6.89,2.58-13.41t2.28-12.24c.69-3.82,1.29-7,1.78-9.66l14.89-.13q.85,5.55,1.85,11.63t2.15,12.43q1.17,6.35,2.4,12.74l1.23,6.89q.62,3.44,1.29,6.83c.45,2.25.9,4.47,1.36,6.64s.92,4.29,1.41,6.34c.33-2.22.76-4.84,1.29-7.88S69,72.79,69.52,69.09s1.15-7.5,1.73-11.44q1.09-7.26,2.21-14.58t2.09-13.91q1-6.57,1.73-11.38l14.64-.61q-.61,3.2-1.54,7.75t-2,9.9q-1.05,5.35-2.21,11.32T83.8,58.51q-1.36,8-2.89,16.18t-3,15.88Q76.42,98.25,75.18,105l-17-.36q-.62-3.07-1.47-7.82T54.82,86.57Q53.77,81,52.73,75.18T50.57,64.05q-.74-3.94-1.41-7.2t-1.23-6c-.37-1.8-.68-3.24-.92-4.3-.17,1.31-.43,2.81-.8,4.49s-.76,3.5-1.17,5.47-.82,4.06-1.23,6.28q-1,5.16-2.1,10.89T39.44,85.09q-1.17,5.66-2.22,10.83C36.52,99.36,35.89,102.4,35.32,105Z" transform="translate(-1.97 -17.04)"/><path class="cls-7" d="M117.27,105.64q-6.9,0-11.08-3.2A20.29,20.29,0,0,1,99.79,94a40.93,40.93,0,0,1-2.64-10,83,83,0,0,1-.8-11.87,70.71,70.71,0,0,1,.74-10.52A43.85,43.85,0,0,1,99.3,52.6a21.92,21.92,0,0,1,6.83-9.41q4.49-3.51,12-3.51,6.89,0,10.89,2.83a15.21,15.21,0,0,1,5.66,7.94,38.43,38.43,0,0,1,1.66,11.88q0,3.08-.31,6.52t-.8,7L122.8,67.37c.17-1.39.29-2.73.37-4s.13-2.48.13-3.63a25.42,25.42,0,0,0-.5-5.35A7.31,7.31,0,0,0,121,50.76a5,5,0,0,0-3.75-1.35,5.07,5.07,0,0,0-4.12,1.84,11.84,11.84,0,0,0-2.28,4.92,33,33,0,0,0-.92,6.71q-.2,3.87-.19,8.06v6c0,1.93.06,3.73.19,5.41s.26,3.22.43,4.62a15.22,15.22,0,0,0,2.4,6.21,5.62,5.62,0,0,0,4.86,2.28,6.16,6.16,0,0,0,3.69-1,5.59,5.59,0,0,0,2-2.64,10.79,10.79,0,0,0,.61-3.76,21.25,21.25,0,0,0-.12-2.15,11,11,0,0,0-.49-2.28h12.79a15.79,15.79,0,0,1,.31,2.4q.06,1.17.06,2.28a18.38,18.38,0,0,1-2.21,9.29,14.73,14.73,0,0,1-6.52,6A23.88,23.88,0,0,1,117.27,105.64ZM100.41,76.85l-.25-10.34L133,66.26l2.21,9.6q-4.8,0-8.61.12t-8.43.19c-3.08,0-6.17.12-9.29.25S103,76.68,100.41,76.85Z" transform="translate(-1.97 -17.04)"/><path class="cls-7" d="M170.79,105a11.11,11.11,0,0,1-6.15-1.59,12.93,12.93,0,0,1-4.06-4.31l-.25,5.78-12.05-.74q0-2.32.06-6T148.4,90V80.54q0-4.92-.06-9.72t-.06-9c0-3.36,0-6.78-.07-10.27s-.1-7.06-.18-10.71-.18-7.28-.31-10.89-.26-7.17-.43-10.7L161.69,17l-.37,30.4a15.88,15.88,0,0,1,5-5.79,12.87,12.87,0,0,1,7.39-2.09A12,12,0,0,1,181.56,42a16.43,16.43,0,0,1,4.74,6.71,31.3,31.3,0,0,1,2.09,9.78q.38,4.18.49,8.61t-.06,8.74c-.12,2.87-.35,5.6-.67,8.18a53.69,53.69,0,0,1-1.36,7.08,22.16,22.16,0,0,1-5.47,10.15C178.81,103.77,175.31,105,170.79,105Zm-2.33-10a5.73,5.73,0,0,0,3.38-.92,6.46,6.46,0,0,0,2.09-2.77,17.38,17.38,0,0,0,1.17-4.07,34.13,34.13,0,0,0,.49-4.86c.08-1.92.15-4,.19-6.33s0-4.64,0-7-.11-4.55-.19-6.52a29.39,29.39,0,0,0-.67-6.83,10.59,10.59,0,0,0-1.85-4.18,4,4,0,0,0-3.26-1.42,6,6,0,0,0-4.06,1.79,13.1,13.1,0,0,0-3.26,5.66,33.38,33.38,0,0,0-1.29,10.27v8a52.23,52.23,0,0,0,.92,11A15.06,15.06,0,0,0,164.7,93,4.82,4.82,0,0,0,168.46,95.06Z" transform="translate(-1.97 -17.04)"/><path class="cls-8" d="M213.74,105.39c-3.28,0-5.85-.71-7.69-2.15a12,12,0,0,1-4-6.4,37.27,37.27,0,0,1-1.23-10.27v-13c0-2.78,0-5.7-.06-8.73s-.09-6-.13-9-.06-5.76-.06-8.42V40.3l13.17-1.6c-.08,2.71-.17,5.74-.25,9.11s-.18,6.82-.3,10.39-.23,7-.31,10.4-.15,6.46-.19,9.29-.06,5.23-.06,7.2a35.61,35.61,0,0,0,.37,5.54,7.67,7.67,0,0,0,1.35,3.57,3.29,3.29,0,0,0,2.71,1.23c1.8,0,3.49-1,5.05-3s2.78-5.06,3.69-9.17a75.57,75.57,0,0,0,1.35-15.75v-6c0-2,0-4.07-.06-6.16S227,51.15,227,49s-.06-4.44-.06-6.82l13.65.24q-.24,6.9-.43,12.18t-.3,10.28q-.14,5-.19,10.77c0,3.85-.06,8.41-.06,13.65a41.1,41.1,0,0,0,.31,5.42,17.14,17.14,0,0,0,1,4.06,26.39,26.39,0,0,0,1.66,3.44l-10.7,3.2a13.39,13.39,0,0,1-2.28-4.12,29.67,29.67,0,0,1-1.41-6.33,20.48,20.48,0,0,1-5.79,7.62A13.41,13.41,0,0,1,213.74,105.39Z" transform="translate(-1.97 -17.04)"/><path class="cls-8" d="M252.74,104q.13-3.45.31-7.14c.13-2.46.21-5.16.25-8.12s.08-6.21.12-9.78.06-7.57.06-12q0-5.78-.06-12.43l-.12-13.29q-.06-6.64-.12-12.49t-.19-10h13.78q-.12,5.54-.24,11.62t-.25,12.43q-.12,6.34-.18,12.43T266,67q0,6.52.13,13.29T266.4,93c.08,3.93.17,7.22.25,9.84Z" transform="translate(-1.97 -17.04)"/><path class="cls-8" d="M299,105.39q-7.38,0-11.5-3.75a21.31,21.31,0,0,1-6-10.15,50.19,50.19,0,0,1-1.73-9.29c-.32-3.41-.49-7-.49-10.89q0-3.94.31-7.51A47,47,0,0,1,280.68,57a37.82,37.82,0,0,1,1.84-5.9,20.2,20.2,0,0,1,6.83-8.62q4.48-3.19,11.63-3.19,6.64,0,10.58,3.26a19.58,19.58,0,0,1,5.91,8.79,43.85,43.85,0,0,1,2.09,9.36,92.59,92.59,0,0,1,.62,11c0,3.44-.13,6.73-.37,9.84A42.55,42.55,0,0,1,318.33,90a25.31,25.31,0,0,1-3.63,8.25,15.84,15.84,0,0,1-6.21,5.29A21.74,21.74,0,0,1,299,105.39Zm.86-10.58a5,5,0,0,0,4.55-2.34,15.05,15.05,0,0,0,2-6.27,24,24,0,0,0,.44-3.88c0-1.35.08-2.81.12-4.37s0-3.15-.06-4.8c0-3-.05-5.72-.13-8.3a53.1,53.1,0,0,0-.61-6.83,16.4,16.4,0,0,0-2-6.28,4.72,4.72,0,0,0-4.25-2.21,4.83,4.83,0,0,0-2.77.8,6.24,6.24,0,0,0-2,2.34,20.24,20.24,0,0,0-1.41,3.63A33.88,33.88,0,0,0,293,61c-.16,1.77-.27,3.63-.31,5.6s-.06,4-.06,6.16c0,1.55,0,3.13.06,4.73s.11,3.08.19,4.43.2,2.69.37,4a16.49,16.49,0,0,0,2.15,6.46A5,5,0,0,0,299.87,94.81Z" transform="translate(-1.97 -17.04)"/><path class="cls-8" d="M345.65,105.39c-3.28,0-5.85-.71-7.69-2.15a12,12,0,0,1-4-6.4,37.27,37.27,0,0,1-1.23-10.27v-13c0-2.78,0-5.7-.06-8.73s-.09-6-.13-9-.06-5.76-.06-8.42V40.3l13.17-1.6c-.09,2.71-.17,5.74-.25,9.11s-.18,6.82-.31,10.39-.22,7-.3,10.4-.15,6.46-.19,9.29-.06,5.23-.06,7.2a35.61,35.61,0,0,0,.37,5.54,7.46,7.46,0,0,0,1.35,3.57A3.29,3.29,0,0,0,349,95.43c1.8,0,3.49-1,5-3s2.79-5.06,3.7-9.17a75.57,75.57,0,0,0,1.35-15.75v-6c0-2,0-4.07-.06-6.16s-.08-4.22-.12-6.4-.07-4.44-.07-6.82l13.66.24q-.24,6.9-.43,12.18c-.12,3.53-.23,7-.31,10.28s-.14,6.91-.18,10.77-.06,8.41-.06,13.65a43.05,43.05,0,0,0,.3,5.42,17.62,17.62,0,0,0,1,4.06,25.16,25.16,0,0,0,1.66,3.44l-10.7,3.2a13.19,13.19,0,0,1-2.28-4.12A29.62,29.62,0,0,1,360,94.94a20.36,20.36,0,0,1-5.78,7.62A13.41,13.41,0,0,1,345.65,105.39Z" transform="translate(-1.97 -17.04)"/><path class="cls-8" d="M400.9,104.9a25.93,25.93,0,0,1-8.19-1.17,15.34,15.34,0,0,1-5.78-3.32,13.74,13.74,0,0,1-3.45-5.29A20.14,20.14,0,0,1,382.31,88c0-1,.05-2,.13-3.07a24.14,24.14,0,0,1,.49-3.33l12.92-.12c-.16,1.07-.31,2.11-.43,3.14a24.14,24.14,0,0,0-.18,2.77A9.37,9.37,0,0,0,396.59,93q1.35,1.84,4.8,1.84a6.31,6.31,0,0,0,3.5-.92A5.45,5.45,0,0,0,407,91.3a9.83,9.83,0,0,0,.67-3.75,6.55,6.55,0,0,0-1.6-4.74,15.43,15.43,0,0,0-4.36-3c-1.85-.9-3.88-1.89-6.1-3-1.72-.91-3.4-1.89-5-3a19.68,19.68,0,0,1-4.31-3.75,16.55,16.55,0,0,1-2.95-5.23,21.39,21.39,0,0,1-1.11-7.26,17.84,17.84,0,0,1,2.65-10,16.37,16.37,0,0,1,7.2-6.09,24.51,24.51,0,0,1,10.09-2,22.08,22.08,0,0,1,10.52,2.22,13.75,13.75,0,0,1,6,6.09,20,20,0,0,1,1.9,8.92c0,.57,0,1.17-.06,1.78s-.08,1.21-.12,1.79a14.34,14.34,0,0,1-.31,2H406.92c.17-.91.31-1.79.44-2.65a17.44,17.44,0,0,0,.18-2.4,10.19,10.19,0,0,0-1.35-5.41,4.92,4.92,0,0,0-4.56-2.22,6.91,6.91,0,0,0-3.32.8,5.12,5.12,0,0,0-2.21,2.34,8.86,8.86,0,0,0-.74,3.88,9,9,0,0,0,.8,4,7.58,7.58,0,0,0,2.34,2.83,22.75,22.75,0,0,0,3.75,2.28q3.08,1.61,6.4,3.2a30.44,30.44,0,0,1,6.09,3.88,18.52,18.52,0,0,1,4.55,5.6,17.23,17.23,0,0,1,1.79,8.24,18.27,18.27,0,0,1-2.53,9.84,16.43,16.43,0,0,1-7,6.22A24.48,24.48,0,0,1,400.9,104.9Z" transform="translate(-1.97 -17.04)"/><path class="cls-1" d="M6.6,168.56c0-2.25.07-4.33.11-6.22s.06-4,.08-6.29,0-4.62,0-7,0-4.62-.06-6.89-.08-4.35-.13-6.22-.12-3.91-.19-6.13l2.34.66c0,1.74,0,3.32,0,4.74s0,3,0,4.63,0,3.32-.06,5,0,3.09,0,4.36,0,2.73,0,4.39,0,3.33.06,5,0,3.29.05,4.74.05,3.07.09,4.85ZM8,131.88l-1.52-2,14.17.33-.11,1.63Zm-.32,22.51v-2l13,.16.05,1.64Z" transform="translate(-1.97 -17.04)"/><path class="cls-1" d="M31.67,168.67A5.65,5.65,0,0,1,29,168a4.93,4.93,0,0,1-2-2.12,7.82,7.82,0,0,1-.76-3.68,6.76,6.76,0,0,1,.6-2.91A8.06,8.06,0,0,1,28.4,157a16.34,16.34,0,0,1,2.26-1.88c.82-.56,1.65-1.1,2.48-1.61l2.07-1.23A14.77,14.77,0,0,0,37,151.06a6,6,0,0,0,1.22-1.25,2.33,2.33,0,0,0,.47-1.36l.87.6a3.61,3.61,0,0,1-.87,2.39,9.73,9.73,0,0,1-2.24,1.91l-2.83,1.8q-1.36.87-2.64,1.83a8.69,8.69,0,0,0-2.08,2.12,4.85,4.85,0,0,0-.79,2.75,8.89,8.89,0,0,0,.36,2.67,3.3,3.3,0,0,0,1.2,1.78,3.84,3.84,0,0,0,2.31.62,4.85,4.85,0,0,0,3.49-1.5,10.47,10.47,0,0,0,2.43-3.92,14.68,14.68,0,0,0,.9-5.15l1.3-2.07a34.39,34.39,0,0,1-.46,4.79,20.38,20.38,0,0,1-1.33,4.69,9.34,9.34,0,0,1-2.54,3.54A6,6,0,0,1,31.67,168.67Zm7-.39V148.45q0-3.87-1.28-5.51a4.4,4.4,0,0,0-3.68-1.63,4.45,4.45,0,0,0-3.84,1.58,6.44,6.44,0,0,0-1.18,4,13,13,0,0,0,.11,1.6,17.58,17.58,0,0,0,.33,1.77l-1.69.17a18.11,18.11,0,0,1-.33-1.8,14.09,14.09,0,0,1-.11-1.69,9,9,0,0,1,.74-3.71A5.72,5.72,0,0,1,30,140.63a6.93,6.93,0,0,1,3.76-1,6.19,6.19,0,0,1,3.65,1,6,6,0,0,1,2,2.45,10.65,10.65,0,0,1,.87,3.13,25,25,0,0,1,.19,2.94l-.16,7.25.16,11.94Z" transform="translate(-1.97 -17.04)"/><path class="cls-1" d="M56.31,168.72a6.4,6.4,0,0,1-3.36-.9,6.6,6.6,0,0,1-2.48-3.24l.11,3.92-1.69-.22c0-.94,0-2,0-3.18s0-2.45,0-3.79,0-2.71,0-4.09,0-2.73,0-4.06v-8.31c0-1.67,0-3.36,0-5.07s0-3.33-.06-4.88,0-2.89,0-4.06l1.85-.49-.06,14.93a9.78,9.78,0,0,1,3-4.22,6.88,6.88,0,0,1,4.25-1.39,5.91,5.91,0,0,1,3.05.71,5.15,5.15,0,0,1,1.91,2,10.13,10.13,0,0,1,1,3.08,28,28,0,0,1,.43,4c.08,1.56.1,3.19.09,4.88s-.11,3.29-.28,4.8a24.65,24.65,0,0,1-.68,3.84A8.91,8.91,0,0,1,61,167.17,6.49,6.49,0,0,1,56.31,168.72Zm.27-1.58a4.74,4.74,0,0,0,2.4-.57,4.42,4.42,0,0,0,1.6-1.64,9.83,9.83,0,0,0,1-2.42,20.41,20.41,0,0,0,.66-3.54c.14-1.39.22-2.86.24-4.42s0-3.07-.05-4.52a33.25,33.25,0,0,0-.36-3.87,8.34,8.34,0,0,0-.76-2.7,3.91,3.91,0,0,0-1.44-1.61,4.48,4.48,0,0,0-2.32-.54,5.92,5.92,0,0,0-3.33,1.09,7.84,7.84,0,0,0-2.69,3.51,16.14,16.14,0,0,0-1.07,6.41v4.25a23.3,23.3,0,0,0,.58,5.53,7.69,7.69,0,0,0,1.9,3.71A4.9,4.9,0,0,0,56.58,167.14Z" transform="translate(-1.97 -17.04)"/><path class="cls-1" d="M76.85,168.83A4.38,4.38,0,0,1,74,168a4.83,4.83,0,0,1-1.53-2.45A14.77,14.77,0,0,1,72,161.8v-9.92c0-1.53,0-3,0-4.55s0-2.9,0-4.17V140l2.13-.55c-.11,3.16-.19,5.73-.25,7.69s-.1,3.55-.13,4.77-.06,2.25-.06,3.1v6a17.76,17.76,0,0,0,.25,3.18,4.13,4.13,0,0,0,1,2.18,2.77,2.77,0,0,0,2.15.79,5.45,5.45,0,0,0,4.09-1.77,11.4,11.4,0,0,0,2.56-4.85,25.31,25.31,0,0,0,.87-6.89v-3.79c0-1,0-1.83,0-2.62s0-1.65,0-2.61-.05-2.23-.08-3.79l2.12.06c0,1.59,0,3.33-.08,5.2s-.1,3.79-.13,5.75-.06,3.9-.06,5.8,0,3.72.11,5.43a15.24,15.24,0,0,0,.22,2.15,3.92,3.92,0,0,0,.49,1.36,7.85,7.85,0,0,0,.76,1l-1.58,1A4.59,4.59,0,0,1,85,166.35a21.59,21.59,0,0,1-.43-3.84,12,12,0,0,1-3,4.58A6.69,6.69,0,0,1,76.85,168.83Z" transform="translate(-1.97 -17.04)"/><path class="cls-1" d="M95.82,168.28c0-.83,0-1.83,0-3s0-2.45.06-3.85,0-2.83,0-4.3,0-2.93,0-4.39,0-3.13,0-5,0-3.9,0-6,0-4.09-.06-6.05,0-3.7,0-5.23h2c0,1.56,0,3.33,0,5.29s0,4,0,6.07,0,4.09,0,6V168Z" transform="translate(-1.97 -17.04)"/><path class="cls-1" d="M114.13,168.83a5.91,5.91,0,0,1-3.68-1.09,7.34,7.34,0,0,1-2.26-2.89,16.88,16.88,0,0,1-1.23-5,57.06,57.06,0,0,1-.3-5.89c0-1.09,0-2.15.11-3.19a22.87,22.87,0,0,1,.41-3,21.6,21.6,0,0,1,.74-2.73,9.44,9.44,0,0,1,2.53-3.89,6.38,6.38,0,0,1,4.44-1.5,5.46,5.46,0,0,1,4.09,1.55,9.23,9.23,0,0,1,2.23,4.06,19.15,19.15,0,0,1,.82,4.12c.15,1.5.22,3.06.22,4.66a52.3,52.3,0,0,1-.27,5.42,17.89,17.89,0,0,1-1.09,4.66,9.06,9.06,0,0,1-1.47,2.51,6.29,6.29,0,0,1-2.21,1.66A7.56,7.56,0,0,1,114.13,168.83Zm.16-1.64a4.57,4.57,0,0,0,3.33-1.17,7.19,7.19,0,0,0,1.8-3.08,13.06,13.06,0,0,0,.62-2.72c.13-1,.22-2,.28-3.11s.1-2.2.13-3.32,0-2.58-.08-3.93a17.2,17.2,0,0,0-.63-3.7,9,9,0,0,0-1.71-3.55,3.89,3.89,0,0,0-3.14-1.41,5.28,5.28,0,0,0-2.53.57,5,5,0,0,0-1.77,1.61,8.81,8.81,0,0,0-1.15,2.45,19.86,19.86,0,0,0-.6,2.78c-.14,1-.24,2.07-.3,3.16s-.08,2.18-.08,3.27,0,2.17.11,3.24a29.72,29.72,0,0,0,.35,3,11.64,11.64,0,0,0,.74,2.56,5.64,5.64,0,0,0,1.74,2.43A4.55,4.55,0,0,0,114.29,167.19Z" transform="translate(-1.97 -17.04)"/><path class="cls-1" d="M135.28,168.83a4.41,4.41,0,0,1-2.87-.87,4.88,4.88,0,0,1-1.52-2.45,14.74,14.74,0,0,1-.52-3.71v-9.92c0-1.53,0-3,0-4.55s0-2.9,0-4.17V140l2.12-.55c-.11,3.16-.19,5.73-.24,7.69s-.1,3.55-.14,4.77-.06,2.25-.06,3.1v6a18.74,18.74,0,0,0,.25,3.18,4.13,4.13,0,0,0,1,2.18,2.79,2.79,0,0,0,2.15.79,5.45,5.45,0,0,0,4.09-1.77,11.29,11.29,0,0,0,2.56-4.85,25.3,25.3,0,0,0,.88-6.89v-3.79c0-1,0-1.83,0-2.62s0-1.65-.06-2.61,0-2.23-.08-3.79l2.13.06c0,1.59,0,3.33-.08,5.2s-.11,3.79-.14,5.75-.06,3.9-.06,5.8,0,3.72.11,5.43a15.24,15.24,0,0,0,.22,2.15,3.92,3.92,0,0,0,.49,1.36,7.11,7.11,0,0,0,.77,1l-1.59,1a4.5,4.5,0,0,1-1.3-2.32,21.44,21.44,0,0,1-.44-3.84,12,12,0,0,1-3,4.58A6.68,6.68,0,0,1,135.28,168.83Z" transform="translate(-1.97 -17.04)"/><path class="cls-1" d="M159.58,168.61a10.73,10.73,0,0,1-3.46-.49,6,6,0,0,1-2.37-1.44,6.06,6.06,0,0,1-1.39-2.4,10.74,10.74,0,0,1-.46-3.3c0-.51,0-1,.08-1.52s.12-1.06.19-1.64h1.75c-.08.62-.14,1.2-.2,1.74s-.08,1.06-.08,1.53a6.49,6.49,0,0,0,1.36,4.55c.91,1,2.4,1.45,4.47,1.45a7.46,7.46,0,0,0,3.55-.74,4.76,4.76,0,0,0,2-1.93,5.34,5.34,0,0,0,.62-2.46,5.16,5.16,0,0,0-1-3.35,8.57,8.57,0,0,0-2.67-2.15c-1.09-.58-2.22-1.15-3.38-1.69-.84-.4-1.65-.82-2.43-1.25A11.35,11.35,0,0,1,154,152a6.19,6.19,0,0,1-1.5-2.07,6.73,6.73,0,0,1-.55-2.84,7.22,7.22,0,0,1,1.07-4,7,7,0,0,1,2.86-2.51,8.87,8.87,0,0,1,3.92-.87,7.64,7.64,0,0,1,4.44,1.12,6,6,0,0,1,2.29,3,11.28,11.28,0,0,1,.68,4c0,.32,0,.65,0,1s-.05.65-.09,1a8.33,8.33,0,0,1-.16,1h-1.8c.11-.51.19-1,.25-1.55s.08-1,.08-1.56a7.8,7.8,0,0,0-1.28-4.49c-.86-1.26-2.35-1.88-4.5-1.88a7.26,7.26,0,0,0-3.3.68,4.54,4.54,0,0,0-2,2,6.4,6.4,0,0,0-.68,3.08,5.11,5.11,0,0,0,.73,2.83,6.81,6.81,0,0,0,2,2,24.82,24.82,0,0,0,2.65,1.52c.94.48,1.91.94,2.89,1.39a15.72,15.72,0,0,1,2.69,1.58,7.05,7.05,0,0,1,2,2.18,6.23,6.23,0,0,1,.73,3.14,7.17,7.17,0,0,1-.87,3.46,6.69,6.69,0,0,1-2.59,2.61A8.24,8.24,0,0,1,159.58,168.61Z" transform="translate(-1.97 -17.04)"/><path class="cls-1" d="M190.27,168.34q-.56-2.51-1.18-5.07t-1.22-5.2q-.6-2.65-1.26-5.32c-.25-1.09-.5-2.17-.76-3.24s-.51-2.14-.76-3.22-.5-2.14-.74-3.21-.48-2.14-.73-3.19h2c.15.73.31,1.55.49,2.48s.39,1.92.6,3,.47,2.16.74,3.32.54,2.35.79,3.55c.36,1.71.74,3.41,1.12,5.12s.75,3.32,1.11,4.85.68,2.89.93,4.09l1.36-4.28c.48-1.47.94-3,1.39-4.44s.9-3,1.34-4.36.85-2.83,1.25-4.12.76-2.49,1.06-3.59.58-2,.79-2.81h2.19c.29,1.09.59,2.24.92,3.46s.67,2.46,1,3.73l1.09,3.87c.43,1.49.88,3,1.33,4.47s.89,2.92,1.31,4.28.79,2.63,1.12,3.79c.25-1,.5-2,.73-3s.48-2.08.74-3.13.51-2.14.76-3.27.53-2.29.82-3.49c.22-1,.44-2,.68-3s.48-2.09.74-3.16.51-2.19.79-3.36l.84-3.59,2.07-.22c-.32,1.27-.64,2.51-1,3.7s-.61,2.38-.9,3.52l-.84,3.32c-.28,1.08-.54,2.12-.8,3.14q-.65,2.61-1.25,5.09l-1.17,4.83c-.38,1.56-.76,3.14-1.12,4.74h-2.29c-.25-.91-.6-2.12-1-3.63s-.92-3.16-1.45-5-1-3.57-1.55-5.32q-.87-2.94-1.61-5.39t-1.11-3.66c-.26.8-.63,2-1.12,3.52s-1.05,3.24-1.66,5.1-1.17,3.66-1.75,5.53-1.12,3.58-1.61,5.12-.86,2.77-1.11,3.68Z" transform="translate(-1.97 -17.04)"/><path class="cls-1" d="M227.44,168.83a6,6,0,0,1-4.58-1.69,10.32,10.32,0,0,1-2.34-4.36,23.91,23.91,0,0,1-.74-4.39c-.13-1.58-.19-3.2-.19-4.87a33.67,33.67,0,0,1,.35-4.91,17,17,0,0,1,1.17-4.2,8.68,8.68,0,0,1,2.73-3.46,7.27,7.27,0,0,1,4.41-1.28,6,6,0,0,1,4,1.26,6.68,6.68,0,0,1,2.07,3.4,18.21,18.21,0,0,1,.6,4.88c0,.8,0,1.63-.11,2.48s-.16,1.73-.27,2.64L233,152.86c.07-.73.13-1.43.19-2.13s.08-1.34.08-2a14.71,14.71,0,0,0-.49-4,5.43,5.43,0,0,0-1.64-2.7,4.7,4.7,0,0,0-3.16-1,5,5,0,0,0-3.49,1.2,8.29,8.29,0,0,0-2.07,3.16,17.19,17.19,0,0,0-.84,3.79,35.52,35.52,0,0,0-.25,4.28q0,1.47.06,2.91a24.76,24.76,0,0,0,.24,2.79c.13.89.28,1.73.47,2.53a9.05,9.05,0,0,0,1.93,3.9,4.67,4.67,0,0,0,3.68,1.49,6.29,6.29,0,0,0,3.38-.76,3.94,3.94,0,0,0,1.66-2.15,10.06,10.06,0,0,0,.46-3.19c0-.29,0-.6,0-.93s-.05-.65-.09-1H235a5.16,5.16,0,0,1,.06.79v.85a11.29,11.29,0,0,1-.71,4.14,5.71,5.71,0,0,1-2.37,2.83A8.59,8.59,0,0,1,227.44,168.83Zm-7-14.28v-1.74l14.23-.11-.11,1.63h-3.52c-1.18,0-2.32,0-3.43,0l-3.08,0-2.48.06C221.36,154.49,220.82,154.51,220.46,154.55Z" transform="translate(-1.97 -17.04)"/><path class="cls-1" d="M250.16,168.72a6.39,6.39,0,0,1-3.35-.9,6.6,6.6,0,0,1-2.48-3.24l.11,3.92-1.69-.22q0-1.41,0-3.18c0-1.18,0-2.45,0-3.79s0-2.71,0-4.09,0-2.73,0-4.06v-8.31c0-1.67,0-3.36,0-5.07s0-3.33-.06-4.88,0-2.89,0-4.06l1.86-.49-.06,14.93a9.62,9.62,0,0,1,3-4.22,6.86,6.86,0,0,1,4.25-1.39,5.93,5.93,0,0,1,3,.71,5.15,5.15,0,0,1,1.91,2,10.13,10.13,0,0,1,1,3.08,29.49,29.49,0,0,1,.43,4c.07,1.56.1,3.19.08,4.88s-.11,3.29-.27,4.8a24.65,24.65,0,0,1-.68,3.84,8.92,8.92,0,0,1-2.32,4.17A6.46,6.46,0,0,1,250.16,168.72Zm.28-1.58a4.67,4.67,0,0,0,2.39-.57,4.45,4.45,0,0,0,1.61-1.64,9.83,9.83,0,0,0,1-2.42,19.57,19.57,0,0,0,.65-3.54c.15-1.39.23-2.86.25-4.42s0-3.07-.06-4.52a31.34,31.34,0,0,0-.35-3.87,8.59,8.59,0,0,0-.76-2.7,4,4,0,0,0-1.45-1.61,4.44,4.44,0,0,0-2.31-.54,5.92,5.92,0,0,0-3.33,1.09,7.86,7.86,0,0,0-2.7,3.51,16.34,16.34,0,0,0-1.06,6.41v4.25a23.87,23.87,0,0,0,.57,5.53,7.79,7.79,0,0,0,1.91,3.71A4.9,4.9,0,0,0,250.44,167.14Z" transform="translate(-1.97 -17.04)"/><path class="cls-1" d="M278.5,155.2a47.81,47.81,0,0,1,.28-5.28,21.72,21.72,0,0,1,1-4.69,9.62,9.62,0,0,1,2.39-4,5.8,5.8,0,0,1,4.2-1.53,6.37,6.37,0,0,1,2.75.55,5.76,5.76,0,0,1,2,1.55,7.59,7.59,0,0,1,1.34,2.53v-3.13c0-1.18,0-2.41,0-3.68s0-2.5,0-3.68v-3.13l1.69-.11q0,4.14,0,7.58c0,2.28,0,4.4-.05,6.34s0,3.76,0,5.43c0,.25,0,.91,0,2s0,2.33.05,3.84,0,3.07,0,4.69,0,3.13,0,4.55,0,2.54,0,3.38l-1.75-.06v-5.66a15.74,15.74,0,0,1-1.44,2.83,7.75,7.75,0,0,1-2.29,2.34,6.21,6.21,0,0,1-3.52.93,5.84,5.84,0,0,1-3-.71,5.19,5.19,0,0,1-1.9-2,10.52,10.52,0,0,1-1.09-2.89,23.46,23.46,0,0,1-.52-3.73C278.55,158.07,278.5,156.66,278.5,155.2Zm1.75-.87c0,1.53,0,3,.05,4.42a19.47,19.47,0,0,0,.44,3.81,7.29,7.29,0,0,0,1.5,3.27,3.8,3.8,0,0,0,3.08,1.26,4.85,4.85,0,0,0,4-1.8,11.54,11.54,0,0,0,2.18-4.47,15.44,15.44,0,0,0,.49-2.32c.11-.78.2-1.58.25-2.4s.08-1.62.08-2.42c0-1.2,0-2.37-.08-3.52a23.25,23.25,0,0,0-.35-3.18,8.54,8.54,0,0,0-1.78-4.15,5,5,0,0,0-4.06-1.58,3.8,3.8,0,0,0-2.18.63,5.38,5.38,0,0,0-1.55,1.66,11.06,11.06,0,0,0-1.06,2.4,18.82,18.82,0,0,0-.79,4.17C280.31,151.62,280.25,153,280.25,154.33Z" transform="translate(-1.97 -17.04)"/><path class="cls-1" d="M309.13,168.83a6.49,6.49,0,0,1-4.49-1.44,8.41,8.41,0,0,1-2.37-3.85,22.2,22.2,0,0,1-.79-4.63c-.13-1.71-.19-3.51-.19-5.39a35.33,35.33,0,0,1,.24-4.23,20.09,20.09,0,0,1,.79-3.68,11.35,11.35,0,0,1,1.58-3.13,6.65,6.65,0,0,1,2.48-2.07,8,8,0,0,1,3.57-.74,6.27,6.27,0,0,1,4.14,1.23,6.7,6.7,0,0,1,2.1,3.29,16.41,16.41,0,0,1,.63,4.75c0,.65,0,1.32-.08,2s-.12,1.39-.2,2.1-.16,1.43-.27,2.15l-1.58-1.47c.11-.61.19-1.21.25-1.8s.1-1.16.13-1.74.06-1.13.06-1.63a10.83,10.83,0,0,0-1.17-5.32c-.79-1.4-2.21-2.1-4.28-2.1a5,5,0,0,0-3.84,1.45,8.69,8.69,0,0,0-2,3.73c-.18.69-.33,1.43-.46,2.21a20.93,20.93,0,0,0-.25,2.45c0,.85-.05,1.72-.05,2.59,0,1.13,0,2.23.08,3.3s.14,2.08.27,3a22.17,22.17,0,0,0,.52,2.67,7.29,7.29,0,0,0,1.91,3.38,5,5,0,0,0,3.6,1.25c2,0,3.47-.43,4.3-1.3a5.14,5.14,0,0,0,1.25-3.71,11.36,11.36,0,0,0,0-1.14c0-.4-.09-.82-.16-1.26l1.85.28c0,.32.06.64.08.95s0,.61,0,.9a8.41,8.41,0,0,1-.76,3.65,5.23,5.23,0,0,1-2.43,2.42A9.63,9.63,0,0,1,309.13,168.83Zm-7-13.41v-1.74l14.22-.11-.11,1.63h-3.51c-1.18,0-2.33,0-3.44,0l-3.08.06-2.48.05C303.06,155.36,302.52,155.39,302.16,155.42Z" transform="translate(-1.97 -17.04)"/><path class="cls-1" d="M330.23,168.61a10.79,10.79,0,0,1-3.47-.49,6,6,0,0,1-2.37-1.44,6.18,6.18,0,0,1-1.39-2.4,10.74,10.74,0,0,1-.46-3.3c0-.51,0-1,.08-1.52s.12-1.06.19-1.64h1.75c-.08.62-.14,1.2-.19,1.74a14.17,14.17,0,0,0-.09,1.53,6.45,6.45,0,0,0,1.37,4.55c.9,1,2.39,1.45,4.47,1.45a7.44,7.44,0,0,0,3.54-.74,4.7,4.7,0,0,0,2-1.93,5.22,5.22,0,0,0,.62-2.46,5.16,5.16,0,0,0-1-3.35,8.57,8.57,0,0,0-2.67-2.15c-1.09-.58-2.22-1.15-3.38-1.69-.84-.4-1.65-.82-2.43-1.25a11.35,11.35,0,0,1-2.12-1.53,6.19,6.19,0,0,1-1.5-2.07,6.88,6.88,0,0,1-.55-2.84,7.22,7.22,0,0,1,1.07-4,7,7,0,0,1,2.86-2.51,8.9,8.9,0,0,1,3.92-.87,7.64,7.64,0,0,1,4.44,1.12,6,6,0,0,1,2.29,3,11.28,11.28,0,0,1,.69,4c0,.32,0,.65,0,1s-.05.65-.08,1a8.37,8.37,0,0,1-.17,1h-1.8c.11-.51.19-1,.25-1.55s.08-1,.08-1.56a7.8,7.8,0,0,0-1.28-4.49c-.85-1.26-2.35-1.88-4.5-1.88a7.25,7.25,0,0,0-3.29.68,4.56,4.56,0,0,0-2,2,6.52,6.52,0,0,0-.68,3.08,5,5,0,0,0,.74,2.83,6.69,6.69,0,0,0,2,2,24.66,24.66,0,0,0,2.64,1.52c.94.48,1.91.94,2.89,1.39a16.21,16.21,0,0,1,2.7,1.58,7.15,7.15,0,0,1,2,2.18,6.23,6.23,0,0,1,.73,3.14,7.17,7.17,0,0,1-.87,3.46,6.69,6.69,0,0,1-2.59,2.61A8.23,8.23,0,0,1,330.23,168.61Z" transform="translate(-1.97 -17.04)"/><path class="cls-1" d="M348.1,134.77l-2.07.11-.16-3.82,2.23-.11Zm-2.18,33.41c0-1.49.07-2.9.11-4.23s.06-2.86.08-4.6,0-3.6,0-5.56v-7.06q0-3.07-.06-6.57h2c-.08,2.36-.13,4.58-.17,6.65s-.05,4.42-.05,7c0,2,0,3.81,0,5.53s0,3.27,0,4.61,0,2.78.06,4.3Z" transform="translate(-1.97 -17.04)"/><path class="cls-1" d="M363.85,168.77a4.86,4.86,0,0,1-4.09-1.82,11.31,11.31,0,0,1-2-4.55,29.57,29.57,0,0,1-.52-4.06c-.09-1.44-.14-2.86-.14-4.28,0-1.09,0-2.15.11-3.19a28.61,28.61,0,0,1,.36-3,21.73,21.73,0,0,1,.62-2.69,9.57,9.57,0,0,1,2.4-3.9,5.84,5.84,0,0,1,4.2-1.5,5.78,5.78,0,0,1,4,1.45,9.25,9.25,0,0,1,2.48,4.71,36.57,36.57,0,0,1,.84,8.77l-1.63-2.29a26.23,26.23,0,0,0-.6-6.07,7.78,7.78,0,0,0-1.88-3.76,4.52,4.52,0,0,0-3.36-1.28,3.83,3.83,0,0,0-3.1,1.36,9.33,9.33,0,0,0-1.75,3.43,21.19,21.19,0,0,0-.73,4c-.13,1.45-.19,2.87-.19,4.25,0,.8,0,1.6,0,2.42s.07,1.62.14,2.4.16,1.54.27,2.26a14.62,14.62,0,0,0,.9,2.89,5,5,0,0,0,1.53,2,3.69,3.69,0,0,0,2.37.74A4.82,4.82,0,0,0,367,166a8.16,8.16,0,0,0,2.45-3.43,15,15,0,0,0,1-5.86l1.63-2.34a32.82,32.82,0,0,1-.19,3.35,24,24,0,0,1-.71,3.81,15.65,15.65,0,0,1-1.42,3.57,7.4,7.4,0,0,1-2.37,2.65A6.12,6.12,0,0,1,363.85,168.77Zm.44,8.56a7.86,7.86,0,0,1-3.71-.73,4.39,4.39,0,0,1-1.93-1.88,5.34,5.34,0,0,1-.58-2.46c0-.21,0-.42,0-.62s0-.41.08-.63l1.64-.33a3.53,3.53,0,0,0-.08.58,5.59,5.59,0,0,0,0,.57,5.7,5.7,0,0,0,.35,2,2.78,2.78,0,0,0,1.42,1.47,6.81,6.81,0,0,0,3.08.55,5.4,5.4,0,0,0,3.71-1.12,5.65,5.65,0,0,0,1.69-3,18.62,18.62,0,0,0,.43-4.17c0-.91,0-2,0-3.22s0-2.75,0-4.55v-6.57c0-1.41,0-2.79.05-4.11s.09-2.56.16-3.71.15-2.16.22-3,.15-1.61.22-2.15h1.64c0,.54-.1,1.25-.17,2.12s-.13,1.87-.19,3-.1,2.35-.14,3.68-.05,2.71-.05,4.17c0,2.07,0,3.82,0,5.26s0,2.68,0,3.73,0,2,0,2.86,0,1.74,0,2.65a19.12,19.12,0,0,1-.33,3.54,9,9,0,0,1-1.17,3.1,6.12,6.12,0,0,1-2.4,2.18A8.39,8.39,0,0,1,364.29,177.33Z" transform="translate(-1.97 -17.04)"/><path class="cls-1" d="M381.24,168.28c0-.68,0-1.43.05-2.23s.07-1.72.11-2.75.06-2.24.06-3.6v-4.77q0-3.7-.06-6.65c0-2-.06-3.61-.08-5s-.05-2.3-.08-2.89l1.85-.16v1.85q0,1.15,0,2.73c0,1.05,0,2.28.05,3.68s.05,3,.08,4.71v15Zm14.88.55-2.08.27c0-.62.08-1.31.11-2.1s.08-1.67.11-2.67.07-2.17.08-3.51,0-2.91,0-4.69v-9.37a10.15,10.15,0,0,0-.43-3.27,3.53,3.53,0,0,0-1.34-1.86,4.09,4.09,0,0,0-2.31-.6,5.27,5.27,0,0,0-3.87,1.58A9.84,9.84,0,0,0,384,147a23.06,23.06,0,0,0-.79,6.29L382,154a31.72,31.72,0,0,1,.38-5.12,18.8,18.8,0,0,1,1.12-4.06,10.92,10.92,0,0,1,1.77-3,6.91,6.91,0,0,1,2.32-1.8,6.51,6.51,0,0,1,2.8-.6,5.79,5.79,0,0,1,3.06.76,4.9,4.9,0,0,1,1.93,2.4,11.61,11.61,0,0,1,.68,4.36v13.84c0,1.31,0,2.44,0,3.38s0,1.79,0,2.54Z" transform="translate(-1.97 -17.04)"/><path class="cls-1" d="M410.83,168.83a8.13,8.13,0,0,1-4.41-1.06A6.28,6.28,0,0,1,404,165a8.41,8.41,0,0,1-.71-4.41c0-.29.08-.58.11-.87h1.75c0,.29-.07.59-.11.9a7,7,0,0,0-.06.9,6.92,6.92,0,0,0,.58,2.78,5,5,0,0,0,1.82,2.15,6,6,0,0,0,3.38.84,7.18,7.18,0,0,0,3.54-.76,4.82,4.82,0,0,0,2-2,5.22,5.22,0,0,0,.63-2.45,4.51,4.51,0,0,0-1.12-3.22,9.31,9.31,0,0,0-2.83-2c-1.15-.54-2.32-1.09-3.52-1.63a22.91,22.91,0,0,1-2.31-1.2,9.48,9.48,0,0,1-2-1.53,6.48,6.48,0,0,1-1.39-2.09,7.28,7.28,0,0,1-.52-2.87,8.78,8.78,0,0,1,1.06-4.49,7.42,7.42,0,0,1,2.86-2.81,8.12,8.12,0,0,1,3.93-1,7.64,7.64,0,0,1,4.44,1.12,6,6,0,0,1,2.29,3.1,14.38,14.38,0,0,1,.68,4.61q0,.6,0,1.23c0,.41,0,.83-.08,1.25s-.09.86-.16,1.33h-1.8c.11-.72.19-1.43.24-2.12s.09-1.34.09-2a9.12,9.12,0,0,0-1.28-5.13q-1.29-1.91-4.5-1.9a6.08,6.08,0,0,0-3.3.84,5.28,5.28,0,0,0-2,2.34,8.23,8.23,0,0,0-.69,3.47,5.29,5.29,0,0,0,.74,2.86,6.75,6.75,0,0,0,2,2,20.36,20.36,0,0,0,2.65,1.47c.94.47,1.9.92,2.88,1.36a17,17,0,0,1,2.7,1.5,6.67,6.67,0,0,1,2,2,5.65,5.65,0,0,1,.74,3,7.31,7.31,0,0,1-.87,3.49,6.7,6.7,0,0,1-2.59,2.64A8.37,8.37,0,0,1,410.83,168.83Z" transform="translate(-1.97 -17.04)"/></g></g></svg>